<svg width="20" height="20" viewBox="0 0 20 20" fill="none" xmlns="http://www.w3.org/2000/svg">
<path fill-rule="evenodd" clip-rule="evenodd" d="M0.833252 10C0.833252 4.93739 4.93731 0.833334 9.99992 0.833334C15.0625 0.833334 19.1666 4.93739 19.1666 10C19.1666 15.0626 15.0625 19.1667 9.99992 19.1667C4.93731 19.1667 0.833252 15.0626 0.833252 10Z" fill="#08AD36"/>
<path fill-rule="evenodd" clip-rule="evenodd" d="M14.4255 6.70244C14.7509 7.02788 14.7509 7.55552 14.4255 7.88096L9.25291 13.2976C8.92747 13.6231 8.39984 13.6231 8.0744 13.2976L5.5744 10.7976C5.24896 10.4722 5.24896 9.94455 5.5744 9.61911C5.89984 9.29368 6.42747 9.29368 6.75291 9.61911L8.66366 11.5299L13.247 6.70244C13.5724 6.37701 14.1001 6.37701 14.4255 6.70244Z" fill="white"/>
</svg>
